<svg width="20" height="20" viewBox="0 0 20 20" fill="none" xmlns="http://www.w3.org/2000/svg">
<path d="M11.3102 18.4002C9.98786 18.6067 8.63547 18.4981 7.36308 18.0832C6.09069 17.6683 4.93425 16.9588 3.98791 16.0124C3.04156 15.0661 2.33205 13.9096 1.91713 12.6372C1.50221 11.3648 1.39361 10.0125 1.60016 8.69016C1.07889 7.69867 0.888413 6.56644 1.05657 5.45897C1.22472 4.3515 1.74269 3.32684 2.53477 2.53477C3.32684 1.74269 4.3515 1.22472 5.45897 1.05657C6.56644 0.888413 7.69867 1.07889 8.69016 1.60016C10.0125 1.39361 11.3648 1.50221 12.6372 1.91713C13.9096 2.33205 15.0661 3.04156 16.0124 3.98791C16.9588 4.93425 17.6683 6.09069 18.0832 7.36308C18.4981 8.63547 18.6067 9.98786 18.4002 11.3102C18.9214 12.3016 19.1119 13.4339 18.9437 14.5413C18.7756 15.6488 18.2576 16.6735 17.4655 17.4655C16.6735 18.2576 15.6488 18.7756 14.5413 18.9437C13.4339 19.1119 12.3016 18.9214 11.3102 18.4002V18.4002ZM10.0522 15.1562H10.0122C12.8842 15.1562 14.3152 13.7702 14.3152 11.9132C14.3152 10.7152 13.7642 9.44216 11.5892 8.95516L9.60616 8.51516C8.85116 8.34316 7.98416 8.11516 7.98416 7.40016C7.98416 6.68516 8.60416 6.18716 9.70816 6.18716C11.9382 6.18716 11.7352 7.71516 12.8392 7.71516C13.4152 7.71516 13.9322 7.37316 13.9322 6.78516C13.9322 5.41516 11.7352 4.38516 9.87616 4.38516C7.85516 4.38516 5.70316 5.24416 5.70316 7.52916C5.70316 8.62716 6.09716 9.79916 8.26316 10.3422L10.9522 11.0132C11.7682 11.2152 11.9702 11.6722 11.9702 12.0852C11.9702 12.7722 11.2862 13.4432 10.0522 13.4432C7.63516 13.4432 7.97416 11.5862 6.67816 11.5862C6.09816 11.5862 5.67516 11.9842 5.67516 12.5572C5.67516 13.6712 7.02716 15.1552 10.0522 15.1552V15.1562Z" fill="#FF5300"/>
</svg>
